<svg width="71" height="71" viewBox="0 0 71 71" fill="none" xmlns="http://www.w3.org/2000/svg">
<rect x="0.886719" y="0.24939" width="70" height="70" rx="35" fill="#61BD4F"/>
<g clip-path="url(#clip0_2002_4226)">
<path d="M38.6106 28.913C37.5794 28.913 36.7804 29.6322 36.7804 30.5201C36.7804 31.408 37.5794 32.1272 38.6106 32.1272C39.5526 32.1272 40.3518 31.408 40.3518 30.5201C40.3518 29.6322 39.5526 28.913 38.6106 28.913ZM26.1106 28.913C25.0794 28.913 24.2803 29.6322 24.2803 30.5201C24.2803 31.408 25.0794 32.1272 26.1106 32.1272C27.0526 32.1272 27.8517 31.408 27.8517 30.5201C27.8517 29.6322 27.0526 28.913 26.1106 28.913Z" fill="white"/>
<path d="M52.9397 25.8563C50.8743 23.2975 47.8959 21.4538 44.5021 20.6331V20.6371C43.7387 19.8737 42.8771 19.1706 41.9129 18.5438C34.6049 13.7625 24.3459 15.221 19.0111 21.7983C14.712 27.142 14.8951 34.33 19.279 39.4367L19.3147 44.7643C19.3147 44.8929 19.337 45.0215 19.3817 45.1419C19.4378 45.3029 19.5287 45.4525 19.6491 45.5817C19.7695 45.7111 19.917 45.8179 20.0833 45.8959C20.2496 45.9739 20.4313 46.0217 20.6181 46.0363C20.8049 46.0511 20.993 46.0325 21.1718 45.9817L26.8236 44.3785C28.3192 44.8567 29.8638 45.1299 31.3995 45.2063L31.3772 45.2223C35.3549 47.8299 40.5691 48.6133 45.3503 47.1911L51.0245 48.8545C51.1673 48.8947 51.3147 48.9187 51.4665 48.9187C52.2567 48.9187 52.8951 48.3441 52.8951 47.6331V42.2491C56.8281 37.4437 56.9307 30.8023 52.9397 25.8563ZM27.4486 41.5259L26.9129 41.3249L22.4933 42.5705L22.4486 38.3919L22.0915 38.0303C18.3147 33.884 18.0647 27.9094 21.6004 23.5259C25.904 18.2143 34.154 17.0411 40.0379 20.8742C45.9397 24.7353 47.2477 32.1483 42.9843 37.4277C39.4085 41.8433 33.0067 43.4745 27.4486 41.5259ZM49.9933 40.8429L49.6361 41.2447L49.6807 45.4233L45.3057 44.0973L44.7701 44.2983C42.2701 45.1339 39.6049 45.2023 37.1361 44.5795L37.1271 44.5755C40.5201 43.6389 43.4841 41.7371 45.5737 39.1553C48.9843 34.9245 49.5379 29.609 47.5557 25.0768L47.5825 25.0929C48.6093 25.7558 49.5513 26.5835 50.3503 27.584C53.5915 31.5858 53.4085 37.0339 49.9933 40.8429Z" fill="white"/>
<path d="M32.3606 28.913C31.3294 28.913 30.5303 29.6322 30.5303 30.5201C30.5303 31.408 31.3294 32.1272 32.3606 32.1272C33.3026 32.1272 34.1017 31.408 34.1017 30.5201C34.1017 29.6322 33.3026 28.913 32.3606 28.913Z" fill="white"/>
</g>
<defs>
<clipPath id="clip0_2002_4226">
<rect width="40" height="40" fill="white" transform="translate(15.8867 14.5693)"/>
</clipPath>
</defs>
</svg>
