<svg width="51" height="91" viewBox="0 0 51 91" fill="none" xmlns="http://www.w3.org/2000/svg">
<g clip-path="url(#clip0_2002_11650)">
<g clip-path="url(#clip1_2002_11650)">
<mask id="mask0_2002_11650" style="mask-type:luminance" maskUnits="userSpaceOnUse" x="0" y="20" width="51" height="51">
<path d="M8 43.25H0.5L25.5 20.75L50.5 43.25H43V55.55C40.375 55.125 37.825 54.05 35.5 52.425C33.925 53.525 32.25 54.325 30.5 54.875V48.25H20.5V54.875C18.75 54.325 17.075 53.525 15.5 52.425C13.175 54.05 10.625 55.125 8 55.55V43.25ZM48.049 60.75C44.574 60.75 38.55 59.575 35.5 57.425C29.4 61.7 21.6 61.7 15.5 57.425C12.45 59.575 8.975 60.75 5.5 60.75H0.5V70.75H50.5V60.75" fill="white"/>
</mask>
<g mask="url(#mask0_2002_11650)">
<path d="M8.00055 43.25H11.1868V40.0637H8.00055V43.25ZM0.500549 43.25L-1.63096 40.8817L-7.80273 46.4363H0.500549V43.25ZM25.5005 20.75L27.6321 18.3817L25.5005 16.4633L23.369 18.3817L25.5005 20.75ZM50.5005 43.25V46.4363H58.804L52.6319 40.8817L50.5005 43.25ZM43.0005 43.25V40.0637H39.8143V43.25H43.0005ZM43.0005 55.55L42.4913 58.6953L46.1868 59.2936V55.55H43.0005ZM35.5005 52.425L37.3259 49.8134L35.5012 48.5381L33.6761 49.8128L35.5005 52.425ZM30.5005 54.875H27.3143V59.2163L31.4559 57.9147L30.5005 54.875ZM30.5005 48.25H33.6868V45.0637H30.5005V48.25ZM20.5005 48.25V45.0637H17.3143V48.25H20.5005ZM20.5005 54.875L19.5452 57.9147L23.6868 59.2163V54.875H20.5005ZM15.5005 52.425L17.325 49.8128L15.4999 48.5381L13.6752 49.8134L15.5005 52.425ZM8.00055 55.55H4.81427V59.2936L8.50981 58.6953L8.00055 55.55ZM35.5005 57.425L37.3363 54.8208L35.5059 53.5304L33.6719 54.8157L35.5005 57.425ZM15.5005 57.425L17.3292 54.8157L15.4952 53.5304L13.6648 54.8208L15.5005 57.425ZM0.500549 60.75V57.5637H-2.68573V60.75H0.500549ZM0.500549 70.75H-2.68573V73.9363H0.500549V70.75ZM50.5005 70.75V73.9363H53.6868V70.75H50.5005ZM8.00055 40.0637H0.500549V46.4363H8.00055V40.0637ZM2.63205 45.6183L27.6321 23.1184L23.369 18.3817L-1.63096 40.8817L2.63205 45.6183ZM23.369 23.1184L48.369 45.6183L52.6319 40.8817L27.6321 18.3817L23.369 23.1184ZM50.5005 40.0637H43.0005V46.4363H50.5005V40.0637ZM39.8143 43.25V55.55H46.1868V43.25H39.8143ZM43.5098 52.4047C41.4026 52.0635 39.2966 51.1908 37.3259 49.8134L33.6752 55.0366C36.3545 56.9092 39.3485 58.1865 42.4913 58.6953L43.5098 52.4047ZM33.6761 49.8128C32.3812 50.7172 31.002 51.3775 29.5452 51.8353L31.4559 57.9147C33.4991 57.2725 35.4699 56.3329 37.325 55.0373L33.6761 49.8128ZM33.6868 54.875V48.25H27.3143V54.875H33.6868ZM30.5005 45.0637H20.5005V51.4363H30.5005V45.0637ZM17.3143 48.25V54.875H23.6868V48.25H17.3143ZM21.4559 51.8353C19.9991 51.3775 18.6199 50.7172 17.325 49.8128L13.6761 55.0373C15.5312 56.3329 17.502 57.2725 19.5452 57.9147L21.4559 51.8353ZM13.6752 49.8134C11.7045 51.1908 9.59854 52.0635 7.49128 52.4047L8.50981 58.6953C11.6526 58.1865 14.6466 56.9092 17.3259 55.0366L13.6752 49.8134ZM11.1868 55.55V43.25H4.81427V55.55H11.1868ZM48.0496 57.5637C46.6096 57.5637 44.4896 57.3116 42.366 56.7971C40.1917 56.2703 38.378 55.555 37.3363 54.8208L33.6648 60.0293C35.6731 61.445 38.3964 62.3922 40.8654 62.9905C43.385 63.6009 46.0145 63.9363 48.0496 63.9363V57.5637ZM33.6719 54.8157C28.6696 58.3214 22.3315 58.3214 17.3292 54.8157L13.6719 60.0343C20.8696 65.0786 30.1315 65.0786 37.3292 60.0343L33.6719 54.8157ZM13.6648 54.8208C11.0949 56.6323 8.25172 57.5637 5.50055 57.5637V63.9363C9.69937 63.9363 13.8061 62.5178 17.3363 60.0293L13.6648 54.8208ZM5.50055 57.5637H0.500549V63.9363H5.50055V57.5637ZM-2.68573 60.75V70.75H3.68682V60.75H-2.68573ZM0.500549 73.9363H50.5005V67.5637H0.500549V73.9363ZM53.6868 70.75V60.75H47.3143V70.75H53.6868Z" fill="white"/>
</g>
</g>
</g>
<defs>
<clipPath id="clip0_2002_11650">
<rect width="50" height="90" fill="white" transform="translate(0.5 0.75)"/>
</clipPath>
<clipPath id="clip1_2002_11650">
<rect width="50" height="50" fill="white" transform="translate(0.5 20.75)"/>
</clipPath>
</defs>
</svg>
