<svg width="11" height="15" viewBox="0 0 11 15" fill="none" xmlns="http://www.w3.org/2000/svg">
<g clip-path="url(#clip0_2002_4165)">
<path d="M4.89267 9.75537C4.62201 9.75537 4.38867 9.65737 4.19267 9.46137L1.18267 6.45137C0.986672 6.25537 0.888672 6.0197 0.888672 5.74437C0.888672 5.46904 0.986672 5.23337 1.18267 5.03737C1.37867 4.84137 1.61434 4.74337 1.88967 4.74337C2.16501 4.74337 2.40067 4.84137 2.59667 5.03737L4.89267 7.33337L7.18867 5.03737C7.38467 4.84137 7.62034 4.74337 7.89567 4.74337C8.17101 4.74337 8.40667 4.84137 8.60267 5.03737C8.79867 5.23337 8.89667 5.46904 8.89667 5.74437C8.89667 6.0197 8.79867 6.25537 8.60267 6.45137L5.60667 9.46137C5.41067 9.65737 5.17267 9.75537 4.89267 9.75537Z" fill="#8E8E93"/>
</g>
<defs>
<clipPath id="clip0_2002_4165">
<rect width="10" height="14" fill="white" transform="matrix(1 0 0 -1 0.886719 14.2494)"/>
</clipPath>
</defs>
</svg>
