<svg width="45" height="81" viewBox="0 0 45 81" fill="none" xmlns="http://www.w3.org/2000/svg">
<g clip-path="url(#clip0_2002_11680)">
<g clip-path="url(#clip1_2002_11680)">
<g clip-path="url(#clip2_2002_11680)">
<path d="M44.7193 40.56C44.7193 28.3075 34.7518 18.34 22.4993 18.34C10.2468 18.34 0.279297 28.3075 0.279297 40.56V41.3988L15.0926 54.3605V62.78H29.906V54.3605L44.7193 41.3988V40.56ZM22.4993 22.7155C24.1047 24.4598 26.984 28.589 27.8155 36.2197C26.4767 35.5254 24.7343 35.005 22.4993 35.005C20.2643 35.005 18.5219 35.5254 17.1831 36.2197C18.0164 28.5816 20.9013 24.4524 22.4993 22.7155ZM13.4002 41.297L17.8405 51.67H17.6387L4.60294 40.2638C5.31583 39.5416 6.56015 38.7084 8.6118 38.7084C12.1337 38.7084 13.3502 41.2118 13.4002 41.297ZM21.8697 51.67L17.2035 40.7915C17.9146 39.9879 19.4996 38.7084 22.4993 38.7084C25.5082 38.7084 27.0988 39.9953 27.7951 40.7841L23.1289 51.67H21.8697ZM27.1581 51.67L31.5984 41.297C31.6206 41.2692 32.7835 38.7084 36.3868 38.7084C38.4273 38.7084 39.6698 39.5471 40.3864 40.2712L27.3599 51.67H27.1581ZM40.3864 35.829C39.3087 35.3383 37.9922 35.005 36.3868 35.005C34.3314 35.005 32.7482 35.5476 31.5336 36.2716C30.8966 29.8333 28.9227 25.4208 27.0859 22.6359C33.5667 24.3006 38.6792 29.3704 40.3864 35.829ZM17.9072 22.6452C16.0759 25.4226 14.102 29.8333 13.465 36.2716C12.2503 35.5476 10.6671 35.005 8.6118 35.005C7.00642 35.005 5.68987 35.3383 4.6122 35.829C5.45904 32.6494 7.13678 29.7525 9.47324 27.4356C11.8096 25.1187 14.7206 23.4653 17.9072 22.6452ZM26.2026 59.0767H18.796V55.3734H26.2026V59.0767Z" fill="white"/>
</g>
</g>
</g>
<defs>
<clipPath id="clip0_2002_11680">
<rect width="44.44" height="80" fill="white" transform="translate(0.279297 0.559998)"/>
</clipPath>
<clipPath id="clip1_2002_11680">
<rect width="44.44" height="80" fill="white" transform="translate(0.279297 0.559998)"/>
</clipPath>
<clipPath id="clip2_2002_11680">
<rect width="44.44" height="44.44" fill="white" transform="translate(0.279297 18.34)"/>
</clipPath>
</defs>
</svg>
