<svg width="45" height="81" viewBox="0 0 45 81" fill="none" xmlns="http://www.w3.org/2000/svg">
<g clip-path="url(#clip0_2002_11659)">
<g clip-path="url(#clip1_2002_11659)">
<g clip-path="url(#clip2_2002_11659)">
<path d="M21.0261 60.988V56.3861H23.5233V60.988H21.0261ZM25.0763 64.0941H26.6294H41.3746H42.9276V62.541V62.4774V18.6284V17.0753H41.3746H38.6624L35.9502 17.0261L35.9361 17.0259H35.922H9.07804H9.06394L9.04984 17.0261L6.33767 17.0753L3.62453 17.0753H2.07152V18.6284V62.478V62.4786L2.07147 62.5399L2.07031 64.0941H3.62448H17.9201H19.4731H25.0763ZM10.7448 27.0477H12.2472V27.2446H10.7448V27.0477ZM19.5829 27.2446H18.0805V27.0477H19.5829V27.2446ZM26.9196 27.2446H25.4171V27.0477H26.9196V27.2446ZM34.2553 27.2446H32.7528V27.0477H34.2553V27.2446ZM10.7448 33.6535H12.2472V33.8504H10.7448V33.6535ZM19.5829 33.8504H18.0805V33.6535H19.5829V33.8504ZM26.9196 33.8504H25.4171V33.6535H26.9196V33.8504ZM34.2553 33.8504H32.7528V33.6535H34.2553V33.8504ZM32.7528 40.4574V40.2605H34.2553V40.4574H32.7528ZM25.4171 40.2605H26.9196V40.4574H25.4171V40.2605ZM18.0805 40.2605H19.5829V40.4574H18.0805V40.2605ZM10.7448 40.2605H12.2472V40.4574H10.7448V40.2605ZM10.7448 47.0633V46.8664H12.2472V47.0633H10.7448ZM19.5829 47.0633H18.0805V46.8664H19.5829V47.0633ZM26.9196 47.0633H25.4171V46.8664H26.9196V47.0633ZM34.2553 47.0633H32.7528V46.8664H34.2553V47.0633ZM32.7528 53.6691V53.4722H34.2553V53.6691H32.7528ZM10.7448 53.4722H12.2472V53.6691H10.7448V53.4722Z" stroke="white" stroke-width="3.10602"/>
</g>
</g>
</g>
<defs>
<clipPath id="clip0_2002_11659">
<rect width="44.44" height="80" fill="white" transform="translate(0.279297 0.559998)"/>
</clipPath>
<clipPath id="clip1_2002_11659">
<rect width="44.44" height="80" fill="white" transform="translate(0.279297 0.559998)"/>
</clipPath>
<clipPath id="clip2_2002_11659">
<rect width="44.44" height="50.652" fill="white" transform="translate(0.279297 15.2339)"/>
</clipPath>
</defs>
</svg>
