<svg width="203" height="171" viewBox="0 0 203 171" fill="none" xmlns="http://www.w3.org/2000/svg">
<g clip-path="url(#clip0_2002_4423)">
<g clip-path="url(#clip1_2002_4423)">
<g clip-path="url(#clip2_2002_4423)">
<path d="M12.6097 101.005C10.3399 101.005 8.43655 100.651 6.89966 99.9441C5.36279 99.2362 4.12147 98.281 3.17571 97.0778C2.25358 95.8512 1.59154 94.424 1.18959 92.7964C0.787645 91.1688 0.58667 89.4467 0.58667 87.6304C0.58667 86.3566 0.669424 84.9295 0.834933 83.349C1.00044 81.7449 1.24871 80.1409 1.57972 78.5369H8.92124L8.81482 85.8966C8.81482 87.4535 8.88579 88.7627 9.02761 89.8242C9.16948 90.8621 9.38226 91.6995 9.66601 92.3364C9.97338 92.9497 10.3517 93.3979 10.801 93.681C11.2738 93.9404 11.8413 94.0702 12.5033 94.0702C13.0472 94.0702 13.5319 93.9641 13.9574 93.7517C14.4067 93.5394 14.785 93.1738 15.0924 92.6548C15.3997 92.1123 15.6362 91.3928 15.8017 90.4965C15.9672 89.5765 16.05 88.4324 16.05 87.0643L16.1563 40.0043H25.3421V85.7905C25.3421 88.9042 24.9874 91.4518 24.2781 93.4333C23.5688 95.4147 22.6112 96.9716 21.4053 98.104C20.2231 99.2127 18.8636 99.9792 17.3267 100.404C15.8135 100.805 14.2412 101.005 12.6097 101.005Z" fill="white"/>
<path d="M48.8917 100.97C47.9223 100.97 46.8701 100.888 45.7352 100.722C44.6003 100.58 43.4772 100.262 42.366 99.7671C41.2546 99.2713 40.1788 98.5757 39.1385 97.6793C38.1218 96.7594 37.2115 95.5563 36.4076 94.0702C35.6273 92.5841 35.0008 90.756 34.5279 88.5858C34.055 86.392 33.8186 83.7854 33.8186 80.766V59.359C33.8186 56.3161 34.055 53.7212 34.5279 51.5747C35.0245 49.4045 35.6746 47.5881 36.4785 46.1256C37.2824 44.6395 38.1928 43.46 39.2094 42.5873C40.2498 41.7145 41.3256 41.054 42.4369 40.6058C43.5718 40.134 44.6949 39.8273 45.8062 39.6858C46.9174 39.5443 47.946 39.4735 48.8917 39.4735C49.7902 39.4735 50.7833 39.5443 51.8709 39.6858C52.9821 39.8038 54.0816 40.0868 55.1693 40.535C56.2805 40.9596 57.3563 41.6083 58.3966 42.4811C59.4369 43.3303 60.3593 44.498 61.1628 45.984C61.9668 47.4466 62.6055 49.2747 63.0785 51.4685C63.5748 53.6387 63.8233 56.2689 63.8233 59.359V80.766C63.8233 83.7618 63.5748 86.3448 63.0785 88.515C62.5815 90.6616 61.9316 92.4897 61.1276 93.9994C60.3236 95.4855 59.3895 96.6886 58.3257 97.6085C57.2854 98.5048 56.2096 99.2127 55.0983 99.7313C54.0107 100.227 52.9231 100.557 51.8354 100.722C50.7478 100.888 49.7665 100.97 48.8917 100.97ZM48.8917 94.0702C49.7902 94.0702 50.5704 93.9169 51.2325 93.6102C51.9182 93.3035 52.4738 92.7728 52.8994 92.0179C53.3486 91.2631 53.6797 90.2724 53.8925 89.0457C54.1289 87.7955 54.2471 86.2269 54.2471 84.3397V56.8468C54.2471 54.9125 54.1289 53.2967 53.8925 51.9993C53.6797 50.7018 53.3486 49.6639 52.8994 48.8855C52.4738 48.0835 51.9182 47.5174 51.2325 47.1871C50.5704 46.8569 49.7902 46.6917 48.8917 46.6917C47.9696 46.6917 47.1657 46.8569 46.48 47.1871C45.7943 47.5174 45.2269 48.0835 44.7777 48.8855C44.3284 49.6639 43.9855 50.7018 43.7491 51.9993C43.5363 53.2967 43.4299 54.9125 43.4299 56.8468V84.3397C43.4299 86.2269 43.5363 87.7955 43.7491 89.0457C43.9855 90.2724 44.3284 91.2631 44.7777 92.0179C45.2269 92.7728 45.7943 93.3035 46.48 93.6102C47.1657 93.9169 47.9696 94.0702 48.8917 94.0702Z" fill="white"/>
<path d="M79.712 80.306L67.5117 40.0043H76.7684L84.1804 68.9126H84.6064L91.9475 40.0043H101.169L88.8978 80.306V100.439H79.712V80.306Z" fill="white"/>
<path d="M112.163 47.2225H102.41V40.0043H131.067V47.2225H121.349V100.439H112.163V47.2225Z" fill="white"/>
<path d="M150.68 100.97C149.711 100.97 148.658 100.888 147.524 100.722C146.388 100.58 145.265 100.262 144.154 99.7671C143.043 99.2713 141.967 98.5757 140.927 97.6793C139.91 96.7594 138.999 95.5563 138.196 94.0702C137.415 92.5841 136.789 90.756 136.316 88.5858C135.843 86.392 135.607 83.7854 135.607 80.766V59.359C135.607 56.3161 135.843 53.7212 136.316 51.5747C136.812 49.4045 137.463 47.5881 138.267 46.1256C139.07 44.6395 139.981 43.46 140.998 42.5873C142.038 41.7145 143.114 41.054 144.225 40.6058C145.36 40.134 146.483 39.8273 147.595 39.6858C148.706 39.5443 149.734 39.4735 150.68 39.4735C151.578 39.4735 152.572 39.5443 153.659 39.6858C154.77 39.8038 155.87 40.0868 156.957 40.535C158.068 40.9596 159.144 41.6083 160.184 42.4811C161.225 43.3303 162.147 44.498 162.951 45.984C163.755 47.4466 164.393 49.2747 164.866 51.4685C165.363 53.6387 165.611 56.2689 165.611 59.359V80.766C165.611 83.7618 165.363 86.3448 164.866 88.515C164.37 90.6616 163.719 92.4897 162.916 93.9994C162.112 95.4855 161.178 96.6886 160.114 97.6085C159.073 98.5048 157.997 99.2127 156.886 99.7313C155.799 100.227 154.711 100.557 153.623 100.722C152.536 100.888 151.555 100.97 150.68 100.97ZM150.68 94.0702C151.578 94.0702 152.359 93.9169 153.02 93.6102C153.706 93.3035 154.262 92.7728 154.688 92.0179C155.137 91.2631 155.468 90.2724 155.68 89.0457C155.917 87.7955 156.035 86.2269 156.035 84.3397V56.8468C156.035 54.9125 155.917 53.2967 155.68 51.9993C155.468 50.7018 155.137 49.6639 154.688 48.8855C154.262 48.0835 153.706 47.5174 153.02 47.1871C152.359 46.8569 151.578 46.6917 150.68 46.6917C149.757 46.6917 148.954 46.8569 148.268 47.1871C147.582 47.5174 147.015 48.0835 146.565 48.8855C146.117 49.6639 145.774 50.7018 145.537 51.9993C145.324 53.2967 145.218 54.9125 145.218 56.8468V84.3397C145.218 86.2269 145.324 87.7955 145.537 89.0457C145.774 90.2724 146.117 91.2631 146.565 92.0179C147.015 92.7728 147.582 93.3035 148.268 93.6102C148.954 93.9169 149.757 94.0702 150.68 94.0702Z" fill="white"/>
<path d="M174.3 40.0043H183.486C184.645 40.0043 185.909 40.0632 187.281 40.1812C188.676 40.2755 190.059 40.5232 191.43 40.9242C192.825 41.3017 194.161 41.8914 195.438 42.6934C196.738 43.4954 197.885 44.5923 198.878 45.9841C199.871 47.3522 200.663 49.0742 201.254 51.15C201.869 53.2259 202.177 55.7499 202.177 58.7221V60.8451C202.177 64.0768 201.893 66.8485 201.326 69.1602C200.782 71.4484 200.049 73.3827 199.126 74.9631C198.205 76.52 197.129 77.7702 195.899 78.7138C194.693 79.6573 193.428 80.3768 192.104 80.8722C190.804 81.3439 189.48 81.6624 188.132 81.8275C186.808 81.969 185.555 82.0398 184.373 82.0398H183.486V100.439H178.705H174.3V40.0043ZM183.947 75.317C185.602 75.317 186.997 75.0811 188.132 74.6093C189.267 74.1139 190.166 73.3591 190.827 72.3448C191.513 71.3069 191.998 69.9859 192.282 68.3818C192.589 66.7542 192.742 64.8081 192.742 62.5436V57.0945C192.742 55.3017 192.613 53.7566 192.353 52.4593C192.092 51.1383 191.619 50.0532 190.934 49.204C190.272 48.3548 189.373 47.7297 188.238 47.3287C187.104 46.904 185.673 46.6917 183.947 46.6917H183.486V75.317H183.947Z" fill="white"/>
</g>
</g>
</g>
<defs>
<clipPath id="clip0_2002_4423">
<rect width="201.59" height="200" fill="white" transform="translate(0.58667 -29.7606)"/>
</clipPath>
<clipPath id="clip1_2002_4423">
<rect width="201.59" height="200" fill="white" transform="translate(0.58667 -29.7606)"/>
</clipPath>
<clipPath id="clip2_2002_4423">
<rect width="201.59" height="61.5318" fill="white" transform="translate(0.58667 39.4735)"/>
</clipPath>
</defs>
</svg>
