<svg width="18" height="18" viewBox="0 0 18 18" fill="none" xmlns="http://www.w3.org/2000/svg">
<g clip-path="url(#clip0_2002_11726)">
<g clip-path="url(#clip1_2002_11726)">
<g clip-path="url(#clip2_2002_11726)">
<path d="M14.8333 7.65727C14.8333 12.3452 9.16667 16.3633 9.16667 16.3633C9.16667 16.3633 3.5 12.3452 3.5 7.65727C3.5 6.05874 4.09702 4.52568 5.15973 3.39535C6.22243 2.26502 7.66377 1.63 9.16667 1.63C10.6696 1.63 12.1109 2.26502 13.1736 3.39535C14.2363 4.52568 14.8333 6.05874 14.8333 7.65727Z" stroke="#FF7E47" stroke-width="1.5" stroke-linecap="round" stroke-linejoin="round"/>
<path d="M9.16706 9.56325C10.4189 9.56325 11.4337 8.54843 11.4337 7.29658C11.4337 6.04473 10.4189 5.02991 9.16706 5.02991C7.91521 5.02991 6.90039 6.04473 6.90039 7.29658C6.90039 8.54843 7.91521 9.56325 9.16706 9.56325Z" stroke="#FF7E47" stroke-width="1.5" stroke-linecap="round" stroke-linejoin="round"/>
</g>
</g>
</g>
<defs>
<clipPath id="clip0_2002_11726">
<rect width="17" height="17" fill="white" transform="translate(0.5 0.630005)"/>
</clipPath>
<clipPath id="clip1_2002_11726">
<rect width="17" height="17" fill="white" transform="translate(0.5 0.630005)"/>
</clipPath>
<clipPath id="clip2_2002_11726">
<rect width="17" height="17" fill="white" transform="translate(0.5 0.630005)"/>
</clipPath>
</defs>
</svg>
