<svg width="45" height="81" viewBox="0 0 45 81" fill="none" xmlns="http://www.w3.org/2000/svg">
<g clip-path="url(#clip0_2002_11666)">
<g clip-path="url(#clip1_2002_11666)">
<g clip-path="url(#clip2_2002_11666)">
<path fill-rule="evenodd" clip-rule="evenodd" d="M11.7363 30.0499L9.18338 35.9028L2.86507 37.3036L2.75226 36.7946L11.7363 30.0499ZM14.7884 28.602L19.6011 33.5932L11.8633 35.3085L14.7884 28.602ZM22.1416 33.0292L17.7162 28.4403L29.0932 30.7712L29.2451 31.4543L22.1416 33.0292ZM28.5798 49.6977L24.4449 42.9956L22.3068 44.3156L26.4133 50.9715L23.3532 55.6696H26.3529L28.6083 52.2089L39.4363 52.2097L41.6953 55.6696H44.6932L42.4369 52.2089H44.2793V49.6968L28.5798 49.6977ZM30.9462 28.8862L14.1693 25.4504L0.279297 35.8788L1.1809 39.9462L15.3152 36.8123L19.5167 55.6696H22.0901L17.7677 36.2696L31.8886 33.1384L30.9462 28.8862Z" fill="white"/>
</g>
</g>
</g>
<defs>
<clipPath id="clip0_2002_11666">
<rect width="44.44" height="80" fill="white" transform="translate(0.279297 0.559998)"/>
</clipPath>
<clipPath id="clip1_2002_11666">
<rect width="44.44" height="80" fill="white" transform="translate(0.279297 0.559998)"/>
</clipPath>
<clipPath id="clip2_2002_11666">
<rect width="44.44" height="30.2192" fill="white" transform="translate(0.279297 25.4504)"/>
</clipPath>
</defs>
</svg>
