<svg width="45" height="81" viewBox="0 0 45 81" fill="none" xmlns="http://www.w3.org/2000/svg">
<g clip-path="url(#clip0_2002_11673)">
<g clip-path="url(#clip1_2002_11673)">
<g clip-path="url(#clip2_2002_11673)">
<path d="M33.6093 58.3314H11.3893V60.5557C11.3893 61.1456 11.1552 61.7114 10.7385 62.1287C10.3218 62.5456 9.75661 62.78 9.1673 62.78H6.9453C6.35599 62.78 5.79082 62.5456 5.37413 62.1287C4.95739 61.7114 4.7233 61.1456 4.7233 60.5557V58.3314H2.5013V40.5371H0.279297V31.6399H2.5013V24.967C2.5013 23.7872 2.9695 22.6557 3.80291 21.8214C4.63633 20.9871 5.76668 20.5184 6.9453 20.5184H38.0533C39.2319 20.5184 40.3623 20.9871 41.1957 21.8214C42.0291 22.6557 42.4973 23.7872 42.4973 24.967V31.6399H44.7193V40.5371H42.4973V58.3314H40.2753V60.5557C40.2753 61.1456 40.0412 61.7114 39.6245 62.1287C39.2078 62.5456 38.6426 62.78 38.0533 62.78H35.8313C35.242 62.78 34.6768 62.5456 34.2601 62.1287C33.8434 61.7114 33.6093 61.1456 33.6093 60.5557V58.3314ZM38.0533 40.5371V24.967H6.9453V40.5371H38.0533ZM38.0533 44.9857H6.9453V53.8828H38.0533V44.9857ZM9.1673 47.21H18.0553V51.6585H9.1673V47.21ZM26.9433 47.21H35.8313V51.6585H26.9433V47.21Z" fill="white"/>
</g>
</g>
</g>
<defs>
<clipPath id="clip0_2002_11673">
<rect width="44.44" height="80" fill="white" transform="translate(0.279297 0.559998)"/>
</clipPath>
<clipPath id="clip1_2002_11673">
<rect width="44.44" height="80" fill="white" transform="translate(0.279297 0.559998)"/>
</clipPath>
<clipPath id="clip2_2002_11673">
<rect width="44.44" height="44.44" fill="white" transform="translate(0.279297 18.34)"/>
</clipPath>
</defs>
</svg>
